<svg width="500" height="500" viewBox="0 0 500 500" fill="none" xmlns="http://www.w3.org/2000/svg">
<path d="M359.393 234.1C356.801 223.046 350.088 220.494 341.234 222.781L328.701 226.048C341.072 222.838 353.141 223.47 359.393 234.1Z" fill="black" stroke="black" stroke-width="7.20966" stroke-miterlimit="10" stroke-linecap="round" stroke-linejoin="round"/>
<path d="M341.234 222.781C319.426 228.549 284.705 263.422 285.945 263.383L283.137 249.04C284.32 249.126 307.01 231.586 328.701 226.048L341.234 222.781Z" fill="black" stroke="black" stroke-width="7.20966" stroke-miterlimit="10" stroke-linecap="round" stroke-linejoin="round"/>
<path d="M343.387 294.578C343.381 294.594 343.365 294.606 343.346 294.61C315.129 302.537 277.764 309.43 241.842 336.697L243.961 312.316C279.885 285.049 319.353 278.434 349.645 270.969C350.383 270.83 350.73 270.525 350.812 270.117L343.387 294.578Z" fill="black" stroke="black" stroke-width="7.20966" stroke-miterlimit="10" stroke-linecap="round" stroke-linejoin="round"/>
<path d="M243.961 312.316C216.994 332.061 172.205 395.58 141.272 408.494L139.15 432.873C171.879 426.699 215.533 357.42 241.842 336.697L243.961 312.316Z" fill="black" stroke="black" stroke-width="7.20966" stroke-miterlimit="10" stroke-linecap="round" stroke-linejoin="round"/>
<path d="M141.272 408.494C125.106 415.219 113.016 409.985 108.234 402.112C101.898 390.458 103.543 377.192 106.469 363.406C191.234 304.676 215.111 268.178 220.305 259.479L220.295 259.501C223.107 249.013 189.104 301.087 102.9 362.962C98.7832 378.145 98.3535 392.052 102.717 404.901C110.629 425.85 121.768 436.174 139.15 432.873L141.272 408.494Z" fill="black" stroke="black" stroke-width="7.20966" stroke-miterlimit="10" stroke-linecap="round" stroke-linejoin="round"/>
<path d="M130.564 163.478C118.828 164.332 106.293 169.835 95.6484 172.42L92.9043 146.85C106.137 154.166 141.416 163.615 129.928 163.466L130.564 163.478Z" fill="black" stroke="black" stroke-width="7.20966" stroke-miterlimit="10" stroke-linecap="round" stroke-linejoin="round"/>
<path d="M95.6485 172.42C98.6543 171.75 99.3223 171.459 99.8555 172.129C131.068 215.139 182.328 227.119 202.201 240.544C207.5 243.76 216.227 250.857 217.695 258.336C217.545 260.487 212.072 265.734 202.977 272.209C180.756 288.337 116.613 334.632 92.9863 340.691C86.4942 342.27 70.6152 346.881 62.5039 337.63C52.4199 326.301 52.2129 312.392 56.4805 294.484C62.2129 271.463 65.4238 267.459 67.3359 261.901L67.4297 261.658C72.1914 248.172 57.4278 272.757 52.6778 298.397C47.4551 322.183 52.4492 346.641 65.9356 359.63C71.4981 365.107 82.2735 369.118 91.0625 367.162C117.957 362.822 184.398 309.901 210.012 289.125C221.914 279.54 222.984 269.49 224.133 264.151C228.281 239.061 218.145 224.101 206.426 216.442C187.002 203.346 134.986 189.933 104.627 153.003C103.666 152.089 96.1367 148.058 92.9043 146.85L95.6485 172.42Z" fill="black" stroke="black" stroke-width="7.20966" stroke-miterlimit="10" stroke-linecap="round" stroke-linejoin="round"/>
<path d="M291.461 229.032C266.076 183.313 209.613 184.825 216.523 146.015C226.252 112.875 259.406 117.206 303.65 118.44C342.295 120.186 389.748 124.51 421.338 125.17L413.016 148.168C381.426 147.508 343.127 143.782 309.699 142.145C265.873 141.711 235.055 141.426 226.396 150.756C232.045 157.598 298.215 186.364 291.842 226.187L291.461 229.032Z" fill="black" stroke="black" stroke-width="7.20966" stroke-miterlimit="10" stroke-linecap="round" stroke-linejoin="round"/>
<path d="M303.977 82.0777C302.488 68.7507 299.539 63.9201 298.158 60.5215C295.371 54.7204 297.225 58.5453 294.359 52.2098L286.037 75.2079C288.498 79.793 288.574 78.5043 290.393 83.6709C290.396 85.3407 292.205 90.9316 293.693 104.259L303.977 82.0777Z" fill="#1D97E2" stroke="#1D97E2" stroke-width="7.20966" stroke-miterlimit="10" stroke-linecap="round" stroke-linejoin="round"/>
<path d="M294.359 52.2098C305.23 76.2844 313.408 92.5738 317.994 109.016L318.107 109.437C320.266 117.519 297.916 90.7017 286.037 75.2079L294.359 52.2098Z" fill="#1D97E2" stroke="#1D97E2" stroke-width="7.20966" stroke-miterlimit="10" stroke-linecap="round" stroke-linejoin="round"/>
<path d="M326.352 349.244C325.885 342.997 304.5 88.3168 303.977 82.0777L293.693 104.259C294.217 110.498 315.598 365.186 316.066 371.427L326.352 349.244Z" fill="#1D97E2" stroke="#1D97E2" stroke-width="7.20966" stroke-miterlimit="10" stroke-linecap="round" stroke-linejoin="round"/>
<path d="M324.715 447.513C329.686 428.538 328.969 389.03 327.949 371.016C327.072 360.589 327.125 359.553 326.352 349.244L316.066 371.427C316.842 381.734 317.176 382.946 318.053 393.376C319.812 411.997 322.383 456.93 324.615 447.892L324.715 447.513Z" fill="#1D97E2" stroke="#1D97E2" stroke-width="7.20966" stroke-miterlimit="10" stroke-linecap="round" stroke-linejoin="round"/>
<path d="M255.437 70.2751C257.77 64.0674 258.305 57.4177 258.201 56.2311C255.66 50.2925 239.691 56.3568 232.098 62.8298C229.127 65.3561 225.916 69.2379 222.576 74.7836L219.281 80.5395C222.82 75.8975 226.02 72.882 228.885 71.0825C236.227 66.4798 251.252 61.3152 254.346 65.7392C255.109 67.3598 253.783 74.8916 254.908 71.6385L255.437 70.2751Z" fill="#1D97E2" stroke="#1D97E2" stroke-width="4.80644" stroke-miterlimit="10" stroke-linecap="round" stroke-linejoin="round"/>
<path d="M222.576 74.7836C222.633 79.2783 224.879 82.3802 226.885 84.4488C230.25 87.8984 234.721 88.472 238.037 89.079C246.783 89.965 255.484 83.4941 265.492 77.4847L264.791 85.5077C256.613 90.3442 240.371 100.679 235.416 100.591C231.775 100.379 224.502 96.8348 220.758 91.572C218.533 88.4583 216.93 84.6374 219.281 80.5395L222.576 74.7836Z" fill="#1D97E2" stroke="#1D97E2" stroke-width="4.80644" stroke-miterlimit="10" stroke-linecap="round" stroke-linejoin="round"/>
<path d="M265.492 77.4847C254.352 85.7277 202.506 108.775 202.744 132.421L201.51 137.865C210.537 116.538 255.535 91.6073 264.791 85.5077L265.492 77.4847Z" fill="#1D97E2" stroke="#1D97E2" stroke-width="4.80644" stroke-miterlimit="10" stroke-linecap="round" stroke-linejoin="round"/>
<path d="M285.945 263.383C286.008 263.44 286.248 263.318 286.687 262.992C291.603 259.086 307.912 257.841 326.393 276.643C327.246 277.048 343.771 293.724 343.387 294.579L350.812 270.117C351.131 268.5 347.566 265.178 347.088 264.595C330.496 248.728 307.805 228.348 289.627 241.607C284.603 246.675 282.707 248.828 283.137 249.04L285.945 263.383Z" fill="black" stroke="black" stroke-width="7.20966" stroke-miterlimit="10" stroke-linecap="round" stroke-linejoin="round"/>
<path d="M421.338 125.17C382.15 146.998 307.367 168.797 260.631 219.76C240.02 242.243 224.314 276.877 220.107 314.661C218.656 326.823 218.854 380.11 249.828 410.046C290.117 445.448 365.246 419.615 403.736 390.84C419.135 380.149 442.879 349.586 448.066 316.225C452.625 277.438 437.547 249.726 408.184 234.157C347.973 199.203 288.029 238.672 287.389 246.763L286.025 260.882C286.084 261.3 344.893 223.971 403.957 258.259C433.32 273.828 443.496 293.865 444.166 315.905C443.305 325.116 424.287 352.784 407.727 364.449C374.43 391.331 288.125 418.766 251.947 385.665C221.082 355.842 223.793 326.509 226.574 312.542C230.488 281.996 245.291 251.726 263.83 233.487C306.762 194.905 371.838 171.815 413.016 148.168L421.338 125.17Z" fill="black" stroke="black" stroke-width="7.20966" stroke-miterlimit="10" stroke-linecap="round" stroke-linejoin="round"/>
<path d="M287.389 246.763C287.223 249.288 292.914 248.747 306.584 241.752L307.621 243.543C292.539 256.303 285.975 260.739 286.025 260.882L287.389 246.763Z" fill="black" stroke="black" stroke-width="7.20966" stroke-miterlimit="10" stroke-linecap="round" stroke-linejoin="round"/>
<path d="M306.584 241.752C306.057 241.328 305.662 240.891 305.389 240.451L307.316 243.168C307.412 243.292 307.514 243.418 307.621 243.543L306.584 241.752Z" fill="black" stroke="black" stroke-width="7.20966" stroke-miterlimit="10" stroke-linecap="round" stroke-linejoin="round"/>
<path d="M305.389 240.451C298.465 229.678 361.609 214.917 359.393 234.1C344.531 222.048 297.924 230.319 307.316 243.168L305.389 240.451Z" fill="black" stroke="black" stroke-width="7.20966" stroke-miterlimit="10" stroke-linecap="round" stroke-linejoin="round"/>
</svg>
