<svg width="315" height="201" viewBox="0 0 315 201" fill="none" xmlns="http://www.w3.org/2000/svg">
<g clip-path="url(#clip0_1_2)">
<path d="M113.316 147.116L16.416 107.672V96.728L113.316 57.284V67.772L21.204 104.708V99.692L113.316 136.628V147.116Z" fill="black"/>
<path d="M201.416 147.116V136.628L293.528 99.692V104.708L201.416 67.772V57.284L298.316 96.728V107.672L201.416 147.116Z" fill="black"/>
<g clip-path="url(#clip1_1_2)">
<path d="M128.126 165.538C130.047 163.904 132.004 161.838 134.332 159.094C136.486 156.655 138.675 152.783 140.206 149.779C152.507 124.123 171.227 84.9041 176.954 73.0179C177.278 71.2523 177.291 69.6506 177.828 67.6799L169.777 73.858C169.696 75.478 169.068 77.2174 168.744 78.983C163.017 90.8692 144.402 130.23 132.208 156.027C131.104 158.353 130.243 159.971 129.325 161.789C127.154 165.95 126.729 166.704 128.002 165.646L128.126 165.538Z" fill="#1D97E2"/>
<path d="M177.828 67.6799C176.086 79.4673 172.743 95.261 172.177 92.0983L172.038 91.3751C170.976 85.4045 171.894 88.701 169.777 73.858L177.828 67.6799Z" fill="#1D97E2"/>
<path d="M191.114 44.3821C193.168 42.701 193.31 41.8425 193.348 41.3439C193.65 38.7769 192.023 36.7212 188.084 37.4355C186.544 37.7136 184.65 38.4113 182.378 39.6602L180.079 40.9913C182.24 40.095 183.957 39.6947 185.315 39.6474C188.792 39.5302 189.911 41.7067 190.105 43.8615C190.208 44.6431 189.615 45.6475 190.657 44.7475L191.114 44.3821Z" fill="#1D97E2"/>
<path d="M182.378 39.6602C181.499 41.2279 181.661 42.7546 181.946 43.8736C182.429 45.7447 183.871 46.8425 184.904 47.7193C187.774 49.7851 192.098 49.2943 196.785 49.2259L194.936 51.8627C191.122 51.893 183.398 52.2062 181.69 51.1787C180.464 50.3735 178.64 47.6837 178.387 45.1084C178.235 43.5824 178.441 41.9374 180.079 40.9913L182.378 39.6602Z" fill="#1D97E2"/>
<path d="M196.785 49.2259C191.257 49.8397 178.509 47.7676 175.892 51.2833L174.374 52.9204C179.753 52.0708 190.494 52.1143 194.936 51.8627L196.785 49.2259Z" fill="#1D97E2"/>
</g>
</g>
<defs>
<clipPath id="clip0_1_2">
<rect width="315" height="201" fill="white"/>
</clipPath>
<clipPath id="clip1_1_2">
<rect width="90" height="180" fill="white" transform="translate(163) rotate(30)"/>
</clipPath>
</defs>
</svg>
